# xmcd CD database file
#
# Track frame offsets:
#	150
#	15055
#	45671
#	67555
#	95474
#	113983
#	127069
#	142203
#	155747
#	171028
#	189510
#	208862
#	225074
#	236713
#	251952
#	267318
#	279360
#	297059
#
# Disc length: 4131 seconds
#
# Revision: 2
# Processed by: cddbd v1.5.2PL0 Copyright (c) Steve Scherf et al.
# Submitted via: CDex 1.79
#
DISCID=fc102112
DTITLE=Sonny Terry and Brownie Mcghee - Midnite Collection
DYEAR=1900
DGENRE=Blues
TTITLE0=Down By The River Side
TTITLE1=Everybody's Blue
TTITLE2=Blues For The Lowlands
TTITLE3=Blowin'the Fuses
TTITLE4=I'm A Stranger Here
TTITLE5=Right On That Shore
TTITLE6=Walk On
TTITLE7=Chain Gang Special
TTITLE8=Pick A Bale Of Cotton
TTITLE9=Red River
TTITLE10=Betty And Dupree
TTITLE11=Chain Gang Blues
TTITLE12=Cornbread, Meat And Molasses
TTITLE13=Ham And Eggs
TTITLE14=It Takes A Chain Gang
TTITLE15=Long John
TTITLE16=Rock Me Momma
TTITLE17=Stackhole
EXTD=
EXTT0=
EXTT1=
EXTT2=
EXTT3=
EXTT4=
EXTT5=
EXTT6=
EXTT7=
EXTT8=
EXTT9=
EXTT10=
EXTT11=
EXTT12=
EXTT13=
EXTT14=
EXTT15=
EXTT16=
EXTT17=
PLAYORDER=
